<?xml version="1.0" encoding="UTF-8"?>
<svg version="1.1" xmlns="http://www.w3.org/2000/svg" width="24" height="24">
<path d="M0 0 C2.97 0 5.94 0 9 0 C8.125 5.75 8.125 5.75 7 8 C7.99 8 8.98 8 10 8 C9.51061681 12.27461239 7.04257174 14.32551066 4.0625 17.25 C3.16660156 18.14203125 2.27070313 19.0340625 1.34765625 19.953125 C-1 22 -1 22 -3 22 C-2.125 15.25 -2.125 15.25 -1 13 C-1.66 12.67 -2.32 12.34 -3 12 C-2.51855059 7.18550592 -2.1991413 4.39828259 0 0 Z M2 1 C-0.29045014 5.81209901 -0.29045014 5.81209901 -1 11 C-0.01 11 0.98 11 2 11 C1.67 12.65 1.34 14.3 1 16 C4.91603304 13.20579508 4.91603304 13.20579508 7 9 C6.01 9 5.02 9 4 9 C4.495 8.05125 4.99 7.1025 5.5 6.125 C7.14424369 3.27721834 7.14424369 3.27721834 7 1 C5.35 1 3.7 1 2 1 Z " fill="#000000" transform="translate(9,1)"/>
</svg>
