<?xml version="1.0" encoding="UTF-8"?>
<svg version="1.1" xmlns="http://www.w3.org/2000/svg" width="50" height="50">
<path d="M0 0 C1.32 0 2.64 0 4 0 C4.8394882 2.10171867 5.67139656 4.20646625 6.5 6.3125 C6.9640625 7.48425781 7.428125 8.65601563 7.90625 9.86328125 C9 13 9 13 9 16 C10.299375 15.979375 11.59875 15.95875 12.9375 15.9375 C17.69382325 15.92995028 22.28388953 16.40112883 27 17 C26.71248893 20.21422633 25.90082842 21.09344717 23.49609375 23.359375 C22.48675781 24.14828125 21.47742187 24.9371875 20.4375 25.75 C19.42558594 26.54921875 18.41367187 27.3484375 17.37109375 28.171875 C16.58863281 28.77515625 15.80617187 29.3784375 15 30 C15.2165625 30.88042969 15.433125 31.76085937 15.65625 32.66796875 C15.9346875 33.82941406 16.213125 34.99085937 16.5 36.1875 C16.7784375 37.33605469 17.056875 38.48460937 17.34375 39.66796875 C17.91495385 42.56818829 18.13283779 45.06096385 18 48 C13.13737993 47.21053933 9.67238257 44.10747848 5.75390625 41.30078125 C3.09834048 39.69750752 3.09834048 39.69750752 0.44140625 40.59765625 C-2.82243039 42.47240401 -5.85221329 44.57376306 -8.9140625 46.7578125 C-11 48 -11 48 -14 48 C-13.41509121 41.85845775 -12.45933748 35.99320151 -11 30 C-12.299375 28.96939453 -12.299375 28.96939453 -13.625 27.91796875 C-14.75038205 27.00828493 -15.87536134 26.0981027 -17 25.1875 C-17.57234375 24.73568359 -18.1446875 24.28386719 -18.734375 23.81835938 C-20.21329815 22.61233276 -21.61296429 21.31066618 -23 20 C-23 19.01 -23 18.02 -23 17 C-16.93303301 16.22959149 -11.11485027 15.90293888 -5 16 C-4.87753906 15.29488281 -4.75507813 14.58976563 -4.62890625 13.86328125 C-3.96594799 10.84496817 -3.01824425 8.08110558 -1.9375 5.1875 C-1.57527344 4.21167969 -1.21304687 3.23585938 -0.83984375 2.23046875 C-0.56269531 1.49441406 -0.28554688 0.75835937 0 0 Z M1 7 C0.3291288 8.6232687 -0.33657029 10.24867578 -1 11.875 C-1.37125 12.77992187 -1.7425 13.68484375 -2.125 14.6171875 C-3.11490226 16.88983858 -3.11490226 16.88983858 -3 19 C-3.75925781 18.97679687 -4.51851562 18.95359375 -5.30078125 18.9296875 C-6.79158203 18.90261719 -6.79158203 18.90261719 -8.3125 18.875 C-9.29863281 18.85179687 -10.28476563 18.82859375 -11.30078125 18.8046875 C-14.22406527 18.79317361 -14.22406527 18.79317361 -17 21 C-16.00806641 21.60134766 -16.00806641 21.60134766 -14.99609375 22.21484375 C-12.36103401 23.98898321 -10.14112691 25.64777607 -8 28 C-7.41088516 31.2429369 -8.11934335 33.863726 -9 37 C-9.185625 38.175625 -9.37125 39.35125 -9.5625 40.5625 C-9.706875 41.366875 -9.85125 42.17125 -10 43 C-9.34773437 42.55527344 -8.69546875 42.11054687 -8.0234375 41.65234375 C-0.9238803 37.05543282 -0.9238803 37.05543282 3.125 36.8125 C7.05509908 38.43580179 10.50324266 40.59486995 14 43 C13.855625 42.33613281 13.71125 41.67226563 13.5625 40.98828125 C13.376875 40.10527344 13.19125 39.22226562 13 38.3125 C12.814375 37.44238281 12.62875 36.57226562 12.4375 35.67578125 C11.61878829 30.66848196 11.61878829 30.66848196 12 28 C13.96875 25.98046875 13.96875 25.98046875 16.5 24.1875 C17.3353125 23.58292969 18.170625 22.97835938 19.03125 22.35546875 C19.6809375 21.90816406 20.330625 21.46085937 21 21 C17.57905758 18.71937172 16.31812778 18.78074993 12.3125 18.875 C11.31863281 18.89304687 10.32476562 18.91109375 9.30078125 18.9296875 C8.54152344 18.95289063 7.78226563 18.97609375 7 19 C6.79503906 18.30132812 6.59007813 17.60265625 6.37890625 16.8828125 C6.10949219 15.97273438 5.84007813 15.06265625 5.5625 14.125 C5.29566406 13.22007813 5.02882813 12.31515625 4.75390625 11.3828125 C4.07386174 9.01724619 4.07386174 9.01724619 3 7 C2.34 7 1.68 7 1 7 Z " fill="#000000" transform="translate(23,1)"/>
</svg>
