<?xml version="1.0" encoding="UTF-8"?>
<svg version="1.1" xmlns="http://www.w3.org/2000/svg" width="50" height="50">
<path d="M0 0 C4.98527289 1.24631822 7.84848213 4.21464285 10.875 8.25 C12.17366116 11.13591368 12.43538337 12.61804867 12 15.75 C9.98828125 17.98828125 9.98828125 17.98828125 7.3125 20.0625 C6.44238281 20.75988281 5.57226562 21.45726563 4.67578125 22.17578125 C1.78521736 23.87636118 0.28734605 24.09946562 -3 23.75 C-1.69927437 29.32453842 0.38159818 33.31733862 3.625 38 C8 44.36119632 8 44.36119632 8 47.75 C5.25 48.0625 5.25 48.0625 2 47.75 C-0.375 45.25 -0.375 45.25 -2 42.75 C-2.33 45.39 -2.66 48.03 -3 50.75 C-4.65 50.75 -6.3 50.75 -8 50.75 C-8.33 48.11 -8.66 45.47 -9 42.75 C-9.53625 43.575 -10.0725 44.4 -10.625 45.25 C-13 47.75 -13 47.75 -16.25 48.0625 C-17.1575 47.959375 -18.065 47.85625 -19 47.75 C-18.47868283 42.79274768 -16.14796788 39.46792007 -13.4375 35.4375 C-13.01275391 34.79232422 -12.58800781 34.14714844 -12.15039062 33.48242188 C-11.10733607 31.90026046 -10.05462128 30.32447499 -9 28.75 C-9.60328125 29.07742187 -10.2065625 29.40484375 -10.828125 29.7421875 C-13.37547299 30.92423027 -15.22412038 30.90421553 -18 30.75 C-19 27.75 -19 27.75 -17.92578125 25.3671875 C-17.39339844 24.46226563 -16.86101563 23.55734375 -16.3125 22.625 C-14.30958285 19.13485932 -12.50629701 15.73048876 -11 12 C-8.67133324 6.6594626 -5.93023155 1.48255789 0 0 Z M-2 3.75 C-3.32 6.06 -4.64 8.37 -6 10.75 C-3.36 13.39 -0.72 16.03 2 18.75 C6.58544817 16.16889311 6.58544817 16.16889311 9 11.75 C6.83111242 8.01559958 4.24499261 5.15597585 0.125 3.8125 C-0.57625 3.791875 -1.2775 3.77125 -2 3.75 Z M-7 14.75 C-8.64555699 15.97809091 -8.64555699 15.97809091 -10 17.75 C-10.00478037 19.8977633 -10.00478037 19.8977633 -9 21.75 C-8.01 22.08 -7.02 22.41 -6 22.75 C-3.80961577 21.37831762 -3.80961577 21.37831762 -2 19.75 C-2.79117904 17.75016466 -2.79117904 17.75016466 -4 15.75 C-4.99 15.42 -5.98 15.09 -7 14.75 Z M-13 23.75 C-12.67 24.41 -12.34 25.07 -12 25.75 C-11.67 25.09 -11.34 24.43 -11 23.75 C-11.66 23.75 -12.32 23.75 -13 23.75 Z M-6 25.75 C-6 33.34 -6 40.93 -6 48.75 C-5.67 48.75 -5.34 48.75 -5 48.75 C-5 41.16 -5 33.57 -5 25.75 C-5.33 25.75 -5.66 25.75 -6 25.75 Z " fill="#000000" transform="translate(29,-0.75)"/>
</svg>
